# xmcd
#
# Track frame offsets:
#	150
#	11700
#	23144
#	33974
#	46799
#	58461
#	70874
#	82750
#	94574
#	106429
#	116861
#	131636
#
# Disc length: 1930 seconds
# Revision: 0
# Processed by: cddbd v1.5.2PL0 Copyright (c) Steve Scherf et al.
# Submitted via: dBpowerAMP V12.0
#
DISCID=9907880c
DTITLE=Bobby Bland - Call On Me/That's The Way Love Is
DYEAR=2009
DGENRE=Blues
TTITLE0=Call On Me
TTITLE1=The Feeling Is Gone
TTITLE2=Honky Tonk
TTITLE3=Cry, Lover, Cry
TTITLE4=Wishing Well
TTITLE5=Share Your Love With Me
TTITLE6=That's The Way Love Is
TTITLE7=Care For Me
TTITLE8=No Sweeter Girl
TTITLE9=Bobby's Blues
TTITLE10=Ain't It A Good Thing
TTITLE11=Queen For A Day
EXTD=
EXTT0=
EXTT1=
EXTT2=
EXTT3=
EXTT4=
EXTT5=
EXTT6=
EXTT7=
EXTT8=
EXTT9=
EXTT10=
EXTT11=
PLAYORDER=
